<svg xmlns="http://www.w3.org/2000/svg" viewBox="0 0 24 24">
<defs>
<!-- <svg xmlns="http://www.w3.org/2000/svg" width="24" height="24" viewBox="0 0 24 24">
  <path d="M3 3h8v8H3zm0 10h8v8H3zM13 3h8v8h-8zm0 10h8v8h-8z"/>
</svg> -->
<symbol id="icon-grid_view" viewBox="0 0 24 24">
<path d="M3 3h8v8H3zm0 10h8v8H3zM13 3h8v8h-8zm0 10h8v8h-8z"/>
</symbol>

<symbol id="icon-view_week" viewBox="0 0 24 24">
<path d="M7.33,20H2V4h5.33V20z M22,20V4h-5.33v16H22z M14.67,20V4H9.33v16H14.67z"/>
</symbol>

<symbol id="icon-format_list_bulleted" viewBox="0 0 24 24">
<path d="M4 10.5c-.83 0-1.5.67-1.5 1.5s.67 1.5 1.5 1.5 1.5-.67 1.5-1.5-.67-1.5-1.5-1.5zm0-6c-.83 0-1.5.67-1.5 1.5S3.17 7.5 4 7.5 5.5 6.83 5.5 6 4.83 4.5 4 4.5zm0 12c-.83 0-1.5.68-1.5 1.5s.68 1.5 1.5 1.5 1.5-.68 1.5-1.5-.67-1.5-1.5-1.5zM7 19h14v-2H7v2zm0-6h14v-2H7v2zm0-8v2h14V5H7z"/>
</symbol>

<symbol id="icon-date_range" viewBox="0 0 24 24">
<path d="M9 11H7v2h2v-2zm4 0h-2v2h2v-2zm4 0h-2v2h2v-2zm4-7h-3V2h-2v2H8V2H6v2H3v18h18V4zm-2 16H5V9h14v11z"/>
</symbol>

<symbol id="icon-settings" viewBox="0 0 24 24">
<path d="M19.44 12.99l-.01.02c.04-.33.08-.67.08-1.01 0-.34-.03-.66-.07-.99l.01.02 2.44-1.92-2.43-4.22-2.87 1.16.01.01c-.52-.4-1.09-.74-1.71-1h.01L14.44 2H9.57l-.44 3.07h.01c-.62.26-1.19.6-1.71 1l.01-.01-2.88-1.17-2.44 4.22 2.44 1.92.01-.02c-.04.33-.07.65-.07.99 0 .34.03.68.08 1.01l-.01-.02-2.1 1.65-.33.26 2.43 4.2 2.88-1.15-.02-.04c.53.41 1.1.75 1.73 1.01h-.03L9.58 22h4.85s.03-.18.06-.42l.38-2.65h-.01c.62-.26 1.2-.6 1.73-1.01l-.02.04 2.88 1.15 2.43-4.2s-.14-.12-.33-.26l-2.11-1.66zM12 15.5c-1.93 0-3.5-1.57-3.5-3.5s1.57-3.5 3.5-3.5 3.5 1.57 3.5 3.5-1.57 3.5-3.5 3.5z"/>
</symbol>

<symbol id="icon-logout" viewBox="0 0 24 24">
<g><path d="M0,0h24v24H0V0z" fill="none"/></g><g><g><polygon points="5,5 12,5 12,3 3,3 3,21 12,21 12,19 5,19"/><polygon points="21,12 17,8 17,11 9,11 9,13 17,13 17,16"/></g></g>
</symbol>

<symbol id="icon-chevron_left" viewBox="0 0 24 24">
<path d="M15.41 7.41 14 6l-6 6 6 6 1.41-1.41L10.83 12l4.58-4.59z"/>
</symbol>

<symbol id="icon-add" viewBox="0 0 24 24">
<path d="M19 13h-6v6h-2v-6H5v-2h6V5h2v6h6v2z"/>
</symbol>

<symbol id="icon-close" viewBox="0 0 24 24">
<path d="M19 6.41 17.59 5 12 10.59 6.41 5 5 6.41 10.59 12 5 17.59 6.41 19 12 13.41 17.59 19 19 17.59 13.41 12 19 6.41z"/>
</symbol>

<symbol id="icon-more_horiz" viewBox="0 0 24 24">
<path d="M6 10c-1.1 0-2 .9-2 2s.9 2 2 2 2-.9 2-2-.9-2-2-2zm12 0c-1.1 0-2 .9-2 2s.9 2 2 2 2-.9 2-2-.9-2-2-2zm-6 0c-1.1 0-2 .9-2 2s.9 2 2 2 2-.9 2-2-.9-2-2-2z"/>
</symbol>

<symbol id="icon-flag" viewBox="0 0 24 24">
<path d="M14.4 6 14 4H5v17h2v-7h5.6l.4 2h7V6h-5.6z"/>
</symbol>

<symbol id="icon-chat_bubble" viewBox="0 0 24 24">
<path d="M22 2H2v20l4-4h16V2z"/>
</symbol>

<symbol id="icon-edit" viewBox="0 0 24 24">
<path d="M3 17.25V21h3.75L17.81 9.94l-3.75-3.75L3 17.25zM21.41 6.34l-3.75-3.75-2.53 2.54 3.75 3.75 2.53-2.54z"/>
</symbol>

<symbol id="icon-delete" viewBox="0 0 24 24">
<path d="M6 21h12V7H6v14zM19 4h-3.5l-1-1h-5l-1 1H5v2h14V4z"/>
</symbol>

<symbol id="icon-loader" viewBox="0 0 24 24">
<path d="M11 2v4c0 0.552 0.448 1 1 1s1-0.448 1-1v-4c0-0.552-0.448-1-1-1s-1 0.448-1 1zM11 18v4c0 0.552 0.448 1 1 1s1-0.448 1-1v-4c0-0.552-0.448-1-1-1s-1 0.448-1 1zM4.223 5.637l2.83 2.83c0.391 0.391 1.024 0.391 1.414 0s0.391-1.024 0-1.414l-2.83-2.83c-0.391-0.391-1.024-0.391-1.414 0s-0.391 1.024 0 1.414zM15.533 16.947l2.83 2.83c0.391 0.391 1.024 0.391 1.414 0s0.391-1.024 0-1.414l-2.83-2.83c-0.391-0.391-1.024-0.391-1.414 0s-0.391 1.024 0 1.414zM2 13h4c0.552 0 1-0.448 1-1s-0.448-1-1-1h-4c-0.552 0-1 0.448-1 1s0.448 1 1 1zM18 13h4c0.552 0 1-0.448 1-1s-0.448-1-1-1h-4c-0.552 0-1 0.448-1 1s0.448 1 1 1zM5.637 19.777l2.83-2.83c0.391-0.391 0.391-1.024 0-1.414s-1.024-0.391-1.414 0l-2.83 2.83c-0.391 0.391-0.391 1.024 0 1.414s1.024 0.391 1.414 0zM16.947 8.467l2.83-2.83c0.391-0.391 0.391-1.024 0-1.414s-1.024-0.391-1.414 0l-2.83 2.83c-0.391 0.391-0.391 1.024 0 1.414s1.024 0.391 1.414 0z"></path>
</symbol>

</defs>
</svg>
